# xmcd
#
# Track frame offsets: 
#        150
#        7474
#        25726
#        43722
#        65906
#        78169
#        93235
#        113658
#        132103
#        155962
#        175387
#        192915
#        213277
#        227800
#
# Disc length: 3251 seconds
#
# Revision: 0
# Processed by: cddbd v1.5.2PL0 Copyright (c) Steve Scherf et al.
# Submitted via: ExactAudioCopy v0.99pb5
#
DISCID=c00cb10e
DTITLE=Huge L - PM Beats
DYEAR=2010
DGENRE=Rap
TTITLE0=Pohjolan Molli Beat
TTITLE1=Biitit Beat
TTITLE2=Betoniviidakos Beat
TTITLE3=Edveden Beat
TTITLE4=Puolesta Annoin Beat
TTITLE5=Vastaan Otin Beat
TTITLE6=Kaikki Hyvin Beat
TTITLE7=Mieti Hetki Beat
TTITLE8=Neliapilas Efx Beat
TTITLE9=Lumme Beat
TTITLE10=Mekaaninen Beat
TTITLE11=Syy Seuraus Beat
TTITLE12=Trojan Hevonen Beat
TTITLE13=Villapaita Beat
EXTD=
EXTT0=
EXTT1=
EXTT2=
EXTT3=
EXTT4=
EXTT5=
EXTT6=
EXTT7=
EXTT8=
EXTT9=
EXTT10=
EXTT11=
EXTT12=
EXTT13=
PLAYORDER=
